<?xml version="1.0" standalone="no"?>
<!DOCTYPE svg PUBLIC "-//W3C//DTD SVG 20010904//EN"
 "http://www.w3.org/TR/2001/REC-SVG-20010904/DTD/svg10.dtd">
<svg version="1.0" xmlns="http://www.w3.org/2000/svg"
 width="479.000000pt" height="487.000000pt" viewBox="0 0 479.000000 487.000000"
 preserveAspectRatio="xMidYMid meet">
<g transform="translate(0.000000,487.000000) scale(0.050000,-0.050000)"
fill="#000000" stroke="none">
<path d="M6630 8318 c-55 -11 -152 -26 -216 -34 -64 -9 -123 -24 -130 -35 -8
-10 -36 -22 -64 -25 -48 -6 -84 -17 -210 -67 -33 -13 -73 -26 -89 -29 -15 -3
-36 -20 -45 -37 -10 -17 -39 -31 -65 -31 -26 0 -52 -13 -58 -30 -7 -16 -26
-30 -44 -30 -18 0 -58 -20 -88 -45 -31 -25 -76 -58 -100 -75 -25 -16 -75 -52
-111 -80 -36 -27 -86 -63 -110 -80 -25 -16 -55 -39 -67 -50 -13 -11 -57 -45
-98 -76 -41 -31 -75 -70 -75 -87 0 -17 -11 -27 -25 -22 -31 10 -82 -38 -66
-63 6 -10 -15 -30 -47 -45 -33 -14 -54 -34 -47 -45 18 -30 -118 69 -169 122
-24 25 -40 46 -35 46 5 0 -9 18 -31 40 -22 22 -47 40 -56 40 -9 0 -56 38 -105
85 -108 105 -268 235 -287 235 -8 0 -68 36 -134 80 -67 44 -132 80 -147 80
-14 0 -48 18 -76 40 -28 22 -65 40 -82 40 -17 0 -36 9 -43 20 -7 12 -21 16
-31 9 -10 -6 -38 3 -63 19 -25 16 -76 35 -114 42 -37 6 -84 20 -103 31 -81 43
-535 67 -786 41 -252 -26 -355 -52 -525 -133 -56 -27 -107 -49 -114 -49 -6 0
-84 -45 -173 -99 -89 -55 -166 -100 -171 -100 -6 -1 -12 -8 -14 -16 -2 -8 -26
-33 -55 -55 -101 -79 -119 -97 -109 -114 6 -9 1 -16 -10 -16 -32 0 -142 -115
-142 -149 0 -16 -12 -25 -26 -20 -16 6 -37 -11 -50 -40 -13 -28 -32 -51 -43
-51 -10 0 -25 -31 -32 -70 -8 -38 -20 -70 -29 -70 -8 0 -27 -29 -41 -65 -15
-36 -44 -89 -66 -119 -22 -31 -34 -70 -28 -95 6 -22 4 -37 -5 -31 -13 8 -37
-73 -50 -170 -2 -16 -11 -61 -21 -100 -10 -38 -19 -380 -22 -760 -2 -379 -9
-735 -16 -790 -8 -60 -6 -90 5 -74 10 15 18 -146 18 -400 0 -234 7 -462 15
-506 40 -218 102 -445 134 -487 20 -26 31 -56 25 -67 -7 -10 3 -35 21 -54 19
-22 27 -50 18 -72 -9 -25 -6 -32 10 -22 14 9 32 -6 46 -36 12 -28 30 -47 38
-41 21 13 42 -50 26 -78 -7 -13 -6 -17 2 -9 9 8 26 3 40 -10 36 -36 52 -91 30
-105 -10 -6 -19 -22 -19 -35 1 -16 7 -14 18 4 14 22 27 17 63 -25 26 -29 59
-53 74 -53 15 0 22 -8 16 -19 -6 -10 7 -24 30 -31 26 -9 38 -25 31 -42 -7 -18
8 -38 38 -52 28 -12 50 -29 50 -37 0 -8 27 -25 61 -39 33 -14 56 -30 50 -36
-6 -5 29 -30 77 -54 90 -46 119 -66 206 -146 28 -26 63 -42 79 -36 16 7 24 3
18 -7 -6 -10 7 -24 29 -31 22 -7 40 -21 40 -31 0 -11 16 -19 35 -19 20 0 47
-18 60 -40 14 -22 38 -40 54 -40 16 0 39 -18 51 -40 12 -22 32 -40 46 -41 39
0 175 -111 159 -129 -8 -9 -5 -11 8 -4 32 19 147 -43 147 -80 0 -19 11 -26 30
-19 28 11 121 -39 225 -121 25 -20 55 -34 65 -31 34 8 22 -32 -15 -53 -19 -10
-28 -26 -19 -35 9 -9 24 -4 33 11 18 29 141 -9 141 -44 0 -9 9 -11 20 -4 11 7
20 3 20 -9 0 -11 14 -21 30 -21 17 0 30 -13 30 -30 0 -16 12 -30 26 -30 14 0
38 -18 54 -40 16 -22 40 -40 53 -40 14 0 40 -25 58 -56 18 -31 59 -68 91 -82
34 -15 58 -41 58 -63 0 -27 9 -34 33 -25 23 9 29 5 19 -10 -20 -32 12 -82 70
-112 28 -14 46 -39 42 -58 -7 -39 28 -46 43 -9 6 15 16 7 24 -20 8 -25 29 -45
49 -45 19 0 51 -24 72 -54 21 -29 58 -74 83 -100 24 -26 54 -65 66 -87 11 -22
30 -35 40 -28 10 6 19 -7 19 -29 0 -22 9 -45 20 -52 11 -7 20 -31 20 -53 0
-28 9 -38 30 -30 16 6 29 5 27 -3 -6 -40 6 -64 32 -64 15 0 34 -18 41 -40 7
-22 23 -40 37 -40 13 0 34 -17 46 -37 37 -58 133 -33 202 54 82 103 84 112 87
425 1 155 9 335 17 401 8 65 6 124 -3 129 -9 6 -16 37 -16 70 0 41 8 56 23 46
16 -10 18 -5 6 14 -27 43 -33 733 -7 781 16 30 16 47 0 63 -29 29 -28 94 2 94
17 0 18 6 3 21 -13 13 -16 52 -6 105 9 46 7 94 -2 106 -10 11 -18 214 -17 450
1 343 -6 450 -32 538 -18 61 -36 124 -38 140 -17 101 -38 159 -54 149 -10 -6
-18 11 -18 39 0 28 -27 101 -60 162 -33 61 -60 124 -60 140 0 17 -11 30 -25
30 -14 0 -37 27 -52 60 -24 56 -124 180 -206 259 -144 137 -236 216 -287 245
-33 19 -58 44 -55 55 3 11 -30 38 -71 59 -42 22 -88 53 -103 71 -14 17 -37 31
-50 31 -14 0 -41 18 -61 40 -19 21 -43 35 -51 29 -9 -5 -23 1 -30 13 -8 12
-54 40 -102 61 -48 21 -87 51 -87 67 0 19 -16 24 -52 18 -36 -7 -47 -2 -37 14
10 15 7 19 -8 10 -13 -8 -47 4 -76 27 -29 22 -67 41 -86 41 -18 0 -42 9 -52
19 -11 11 -39 23 -62 26 -24 4 -57 19 -75 33 -18 15 -32 19 -32 9 0 -9 -7 -8
-15 3 -16 21 -90 53 -245 105 -49 17 -132 49 -184 72 l-94 42 1 297 c2 396 22
458 190 568 29 19 46 46 41 65 -6 23 7 34 44 37 29 2 62 18 75 35 58 78 376
96 507 29 43 -22 101 -40 128 -40 27 0 74 -21 105 -47 32 -26 67 -43 80 -39
12 4 35 -19 49 -52 18 -40 32 -52 42 -36 11 17 16 15 16 -6 1 -27 3 -27 20 0
17 25 22 23 32 -15 7 -24 19 -40 28 -35 8 5 32 -13 52 -40 21 -28 53 -50 73
-50 39 0 49 -59 10 -62 -14 0 2 -12 35 -25 101 -39 150 -81 150 -126 0 -27 16
-49 40 -57 22 -7 40 -27 40 -43 0 -17 22 -58 50 -91 39 -46 45 -67 30 -96 -26
-48 -26 -86 0 -70 12 7 16 20 10 30 -5 9 7 12 28 6 40 -10 69 -99 39 -118 -34
-21 -16 -52 23 -42 45 12 87 -44 69 -92 -12 -30 39 -94 74 -94 10 0 15 -8 9
-17 -15 -25 95 -136 151 -154 26 -8 53 -24 61 -36 38 -60 456 -138 456 -85 0
16 31 33 69 41 39 7 77 24 85 38 9 14 46 37 82 52 37 15 80 53 98 89 17 34 37
67 44 72 24 20 130 190 131 211 2 39 80 178 124 221 24 24 47 64 50 90 4 27
27 57 52 68 25 11 45 27 45 36 0 9 -11 9 -25 1 -14 -8 0 14 30 50 30 37 55 74
55 85 0 10 13 18 29 18 16 0 40 17 55 37 26 38 35 43 81 43 18 1 18 5 3 15
-39 26 4 94 85 136 42 21 94 55 114 75 20 20 50 32 65 26 15 -6 36 6 47 26 11
20 45 42 75 48 31 6 73 18 94 26 30 11 35 8 22 -14 -10 -16 -9 -21 2 -11 10 9
18 26 18 38 0 64 462 78 548 16 32 -22 68 -41 81 -41 12 0 34 -9 47 -20 110
-89 162 -145 168 -180 3 -23 21 -64 40 -93 76 -116 57 -833 -20 -771 -28 22
-158 7 -144 -16 5 -9 -20 -21 -55 -28 -36 -7 -119 -39 -185 -72 -66 -33 -131
-60 -145 -60 -14 0 -25 -9 -25 -20 0 -11 -7 -18 -15 -17 -8 2 -73 -25 -145
-60 -71 -34 -140 -63 -153 -63 -12 0 -33 -13 -47 -30 -14 -16 -41 -30 -62 -30
-20 0 -53 -17 -72 -38 -20 -20 -56 -43 -81 -51 -25 -7 -45 -21 -45 -30 0 -9
-47 -36 -105 -61 -58 -25 -112 -57 -121 -72 -9 -16 -43 -28 -75 -28 -46 0 -59
-9 -59 -40 0 -22 -9 -40 -20 -40 -11 0 -62 -40 -113 -90 -51 -49 -100 -90
-110 -90 -9 0 -15 -7 -12 -16 3 -8 -29 -49 -70 -90 -41 -42 -75 -80 -75 -85 0
-5 -16 -27 -35 -49 -78 -89 -96 -114 -123 -165 -15 -29 -36 -49 -45 -43 -9 6
-17 -7 -17 -28 0 -22 -13 -50 -29 -63 -16 -13 -39 -55 -52 -93 -12 -38 -30
-63 -41 -57 -10 6 -18 -18 -18 -55 0 -36 -19 -97 -42 -135 -28 -45 -44 -112
-49 -195 -4 -69 -20 -155 -37 -191 -24 -54 -29 -208 -28 -945 0 -484 0 -970 0
-1080 -4 -784 11 -1010 67 -1010 15 0 49 -22 76 -49 56 -55 106 -51 179 17 26
24 58 41 71 36 14 -4 18 5 11 23 -7 19 9 41 45 61 32 17 50 31 42 31 -9 1 -2
23 15 49 23 34 44 45 74 37 30 -8 38 -4 27 13 -9 16 1 37 27 55 23 16 42 41
42 56 0 15 90 119 200 232 110 113 200 215 200 227 0 12 9 9 20 -8 15 -23 19
-24 20 -3 0 31 181 208 196 193 6 -5 23 8 38 30 16 22 39 40 52 40 14 0 41 23
62 50 21 28 54 50 75 50 20 0 37 14 37 31 0 17 8 26 19 20 10 -6 32 8 48 31
18 25 53 44 88 45 44 2 57 11 50 34 -5 21 15 44 59 65 36 18 57 33 46 34 -11
0 -7 9 9 19 19 12 39 11 56 -3 20 -17 23 -14 14 9 -6 17 -1 38 13 46 15 10 19
7 10 -8 -37 -60 27 -14 84 61 35 46 64 76 64 67 0 -10 18 -1 40 19 22 20 40
29 40 20 0 -9 22 8 49 37 27 29 59 53 70 53 12 0 21 11 21 25 1 18 6 17 18 -3
14 -22 22 -19 41 15 12 24 36 43 52 43 16 0 45 18 64 40 18 22 49 40 66 40 54
0 159 61 159 91 0 16 14 29 31 29 19 0 26 -10 19 -25 -7 -14 1 -8 19 14 17 21
31 46 31 55 0 9 17 16 39 16 21 0 44 8 50 18 6 10 -7 14 -29 8 -22 -6 -40 -5
-40 2 0 16 102 60 130 55 11 -1 38 24 60 57 25 37 57 60 86 60 26 0 43 11 40
25 -6 30 89 135 121 135 13 0 23 11 23 25 0 14 31 51 70 84 39 32 70 74 70 94
0 21 9 37 20 37 11 0 33 31 49 70 16 38 38 70 50 70 12 0 21 11 21 25 0 14 18
59 40 100 22 41 40 87 40 102 0 15 18 50 40 78 22 28 40 74 40 102 0 29 14 91
30 140 17 49 35 132 41 186 21 173 25 2415 5 2453 -10 20 -20 65 -21 99 -1 34
-13 86 -28 114 -15 28 -27 74 -27 101 0 28 -17 82 -37 120 -21 39 -44 99 -52
135 -8 36 -22 65 -33 65 -10 0 -18 14 -18 30 0 17 -18 46 -40 65 -22 18 -40
45 -40 59 0 15 -9 26 -20 26 -11 0 -20 14 -20 30 0 17 -9 30 -20 30 -11 0 -20
8 -20 18 0 36 -328 382 -361 382 -11 0 -19 7 -19 16 0 24 -145 116 -230 147
-38 14 -70 32 -70 41 0 9 -14 16 -31 16 -17 0 -67 18 -110 41 -224 114 -739
185 -989 137z m-3430 -191 c39 -7 86 -21 106 -31 20 -10 86 -27 148 -37 61
-10 127 -31 145 -48 19 -17 64 -37 102 -44 38 -8 81 -26 95 -40 15 -15 44 -27
64 -27 21 0 43 -9 50 -21 7 -11 51 -38 97 -60 191 -90 690 -529 778 -684 53
-94 103 -96 145 -8 55 116 445 478 680 630 114 73 414 222 451 223 16 0 51 14
76 32 43 30 147 60 393 111 150 31 610 45 636 19 12 -12 58 -22 103 -22 45 0
107 -14 138 -30 32 -17 67 -30 78 -30 11 0 102 -40 203 -89 481 -236 830 -677
935 -1181 45 -217 37 -2605 -10 -2770 -62 -221 -226 -558 -336 -690 -54 -65
-296 -301 -352 -344 -50 -37 -374 -259 -462 -316 -592 -382 -778 -512 -1120
-784 -462 -368 -953 -859 -1064 -1066 -55 -102 -93 -145 -120 -136 -29 9 -28
2971 2 3048 10 27 28 108 39 180 12 71 39 163 61 204 21 40 39 92 39 115 0 22
10 51 22 63 13 13 33 40 45 62 245 427 649 754 1366 1105 112 54 212 99 223
99 12 0 46 13 77 29 96 48 193 86 281 110 46 12 89 30 95 39 6 10 49 23 96 30
146 22 140 4 136 434 -3 401 -4 406 -104 612 -69 141 -252 289 -404 327 -51
13 -99 32 -105 41 -26 43 -543 -15 -605 -67 -18 -16 -70 -39 -116 -52 -45 -13
-93 -37 -107 -53 -14 -17 -37 -30 -51 -30 -14 0 -29 -7 -32 -16 -4 -8 -47 -46
-97 -84 -153 -117 -199 -164 -348 -350 -152 -191 -235 -332 -360 -610 -125
-281 -393 -384 -652 -252 -147 75 -168 96 -230 229 -191 405 -222 458 -360
619 -268 312 -709 624 -883 624 -37 0 -101 14 -140 30 -264 110 -815 -121
-881 -370 -7 -27 -25 -62 -39 -76 -15 -15 -27 -54 -27 -88 0 -34 -2 -220 -4
-414 -4 -404 -9 -388 129 -432 58 -18 132 -45 165 -61 33 -15 122 -51 199 -80
76 -29 152 -60 170 -68 158 -75 229 -106 341 -152 72 -29 144 -66 162 -81 17
-15 38 -28 46 -28 70 0 514 -314 713 -504 113 -108 359 -452 359 -502 0 -13
12 -47 27 -75 135 -258 147 -432 139 -1972 -3 -771 1 -1344 12 -1372 27 -71
44 -195 27 -195 -8 0 -34 -6 -58 -12 -36 -10 -51 7 -101 105 -167 335 -599
792 -1146 1214 -93 73 -184 145 -202 162 -17 17 -37 31 -43 31 -7 0 -111 65
-230 145 -120 80 -238 156 -262 170 -23 14 -63 36 -86 50 -24 14 -142 90 -262
170 -119 80 -225 145 -235 145 -10 0 -25 12 -34 27 -9 15 -35 37 -58 49 -150
79 -462 403 -547 569 -15 30 -35 55 -43 55 -8 0 -21 29 -29 65 -7 36 -21 74
-30 85 -24 30 -94 245 -123 380 -35 163 -37 2469 -3 2686 21 127 96 355 127
384 6 6 22 36 36 67 65 148 368 471 550 588 143 91 417 225 462 226 23 0 59
13 81 30 23 17 87 30 160 31 66 1 144 9 171 18 52 17 398 9 520 -13z"/>
<path d="M2098 4725 c-10 -182 9 -580 30 -605 13 -16 35 -55 48 -86 27 -64 40
-81 165 -215 51 -55 98 -99 106 -99 7 0 58 -31 113 -70 55 -38 108 -70 117
-70 10 0 30 -15 46 -33 15 -18 54 -46 87 -61 33 -15 87 -45 120 -66 33 -21 87
-54 119 -72 32 -18 71 -46 86 -61 16 -15 36 -27 45 -27 25 0 178 -105 248
-170 79 -73 164 -79 156 -10 -4 28 -14 179 -24 337 -30 491 -153 694 -570 942
-203 120 -316 181 -337 181 -13 0 -66 23 -117 50 -52 28 -112 50 -133 50 -22
0 -70 15 -106 33 -207 104 -196 102 -199 52z m230 -197 c18 -7 32 -25 32 -40
0 -15 9 -28 21 -28 14 0 14 -12 0 -39 -14 -26 -14 -43 -1 -51 11 -7 20 1 20
16 0 51 97 54 136 4 20 -25 58 -51 85 -59 37 -10 42 -9 19 7 -26 19 -26 21 1
22 17 0 61 -22 98 -49 37 -27 75 -45 84 -39 9 6 17 -4 17 -22 0 -18 9 -27 20
-20 11 7 20 -1 20 -18 0 -20 11 -26 33 -18 18 7 42 0 55 -17 12 -16 49 -40 83
-54 57 -23 118 -74 189 -156 139 -163 173 -697 36 -560 -45 44 -208 133 -248
135 -21 0 -27 6 -13 11 14 6 25 20 25 31 0 11 -14 15 -31 8 -17 -6 -66 11
-109 38 -44 28 -87 50 -97 50 -9 0 -33 18 -53 40 -20 22 -44 40 -54 40 -35 0
-150 90 -142 112 4 12 -6 33 -23 47 -21 18 -31 19 -31 3 0 -12 -13 -22 -30
-22 -17 0 -30 18 -30 40 0 27 -13 40 -40 40 -22 0 -39 7 -38 15 10 62 -7 110
-42 119 -33 9 -41 29 -44 123 -2 62 -6 145 -8 183 -8 112 3 130 60 108z"/>
<path d="M7490 4691 c-44 -27 -96 -50 -115 -50 -19 -1 -91 -23 -160 -50 -69
-26 -138 -53 -155 -60 -16 -6 -43 -19 -60 -29 -16 -10 -82 -44 -145 -75 -63
-31 -115 -64 -115 -72 0 -8 -14 -15 -31 -15 -42 0 -429 -389 -429 -432 0 -18
-17 -61 -38 -96 -43 -70 -97 -397 -106 -641 -8 -201 11 -208 181 -72 69 56
139 101 154 101 16 0 29 9 29 20 0 11 29 33 65 50 36 16 92 48 125 70 33 22
89 55 125 73 36 19 65 42 65 51 0 9 11 16 24 16 44 0 436 282 518 373 159 176
213 332 222 637 7 277 -6 293 -154 201z m-17 -225 c17 -67 -23 -313 -52 -322
-12 -4 -21 -27 -21 -52 0 -25 -22 -64 -50 -88 -27 -24 -50 -57 -50 -74 0 -17
-18 -30 -40 -30 -22 0 -38 -10 -35 -23 6 -29 -307 -218 -335 -202 -11 6 -14 4
-6 -4 27 -30 -133 -133 -179 -117 -14 5 -25 0 -25 -12 0 -12 -20 -22 -45 -22
-33 -1 -38 -5 -18 -18 39 -24 0 -42 -65 -31 -45 9 -54 4 -48 -25 10 -52 -83
-90 -123 -50 -47 47 -27 295 29 351 16 16 33 51 38 79 17 94 232 349 272 324
9 -5 20 8 26 30 7 26 27 40 60 40 32 0 53 14 60 39 7 28 34 44 92 53 45 7 77
20 72 29 -6 8 6 13 25 10 19 -3 50 5 69 16 24 15 48 14 85 -6 28 -15 56 -23
62 -16 7 6 -7 17 -29 25 -41 12 -59 50 -24 50 9 0 45 6 80 13 51 10 62 6 62
-24 0 -38 28 -23 32 17 1 13 3 40 5 59 5 55 61 41 76 -19z"/>
<path d="M6690 6921 c-29 -11 -17 -15 46 -15 47 0 90 7 96 17 13 21 -87 20
-142 -2z"/>
<path d="M7266 6760 c22 -59 54 -81 54 -39 0 33 -39 99 -59 99 -10 0 -7 -27 5
-60z"/>
</g>
</svg>
